HIERARCHY
ROOT ui
{
	 OFFSET 0 0 0
	 CHANNELS 3 XPosition YPosition Z Position
	 EndSite
	 {
	 OFFSET 0 -1 0
	 }
}
ROOT li
{
	 OFFSET 0 0 0
	 CHANNELS 3 XPosition YPosition Z Position
	 EndSite
	 {
	 OFFSET 0 -1 0
	 }
}
ROOT ul
{
	 OFFSET 0 0 0
	 CHANNELS 3 XPosition YPosition Z Position
	 EndSite
	 {
	 OFFSET 0 -1 0
	 }
}
ROOT ll
{
	 OFFSET 0 0 0
	 CHANNELS 3 XPosition YPosition Z Position
	 EndSite
	 {
	 OFFSET 0 -1 0
	 }
}
ROOT tt
{
	 OFFSET 0 0 0
	 CHANNELS 3 XPosition YPosition Z Position
	 EndSite
	 {
	 OFFSET 0 -1 0
	 }
}
ROOT tb
{
	 OFFSET 0 0 0
	 CHANNELS 3 XPosition YPosition Z Position
	 EndSite
	 {
	 OFFSET 0 -1 0
	 }
}
ROOT td
{
	 OFFSET 0 0 0
	 CHANNELS 3 XPosition YPosition Z Position
	 EndSite
	 {
	 OFFSET 0 -1 0
	 }
}
ROOT v
{
	 OFFSET 0 0 0
	 CHANNELS 3 XPosition YPosition Z Position
	 EndSite
	 {
	 OFFSET 0 -1 0
	 }
}
ROOT bn
{
	 OFFSET 0 0 0
	 CHANNELS 3 XPosition YPosition Z Position
	 EndSite
	 {
	 OFFSET 0 -1 0
	 }
}
MOTION
Frames: 21
Frame Time: 0.002
0.009924400329589843	-1.750890016555786E-4	0		0.48244232177734375	-2.33690087890625	0		-1.0765419921875	-0.03338430786132812	0		-0.7141096801757812	-2.29180859375	0		1.2709010009765624	-0.6040648803710937	0		3.0138818359375	0.06345788192749023	0		4.580208984375	0.0820157470703125	0		5.55877685546875	0.12449610900878906	0		-0.332798583984375	5.8852685546875	0		
-0.05812847137451172	0.008322877883911133	0		0.4524581604003906	-2.3190927734375	0		-1.0647379150390626	-0.035375072479248044	0		-0.7290501098632812	-2.271645751953125	0		1.313446044921875	-0.607489990234375	0		3.02388818359375	0.07265151977539062	0		4.59226025390625	0.09348048400878907	0		5.57476123046875	0.12847250366210938	0		-0.1809158935546875	5.91626513671875	0		
-0.0011586199998855592	0.013303504943847657	0		0.4742021484375	-2.329905029296875	0		-1.080920654296875	-0.04002529144287109	0		-0.735244873046875	-2.2785830078125	0		1.2720634765625	-0.6088721313476563	0		3.01767578125	0.060072898864746094	0		4.57422216796875	0.09336148834228515	0		5.56183984375	0.1358564453125	0		-0.1915262451171875	5.9071875	0		
-0.05835919570922852	0.004740441799163818	0		0.4491531982421875	-2.327104248046875	0		-1.0790311279296876	-0.039899608612060544	0		-0.7003685302734375	-2.2830498046875	0		1.29978564453125	-0.6040941162109374	0		3.02368603515625	0.06439197540283204	0		4.58798388671875	0.07691151428222656	0		5.5538310546875	0.13527056884765626	0		-0.18709214782714845	5.90693212890625	0		
0.012523463249206543	0.0035111730098724364	0		0.4500811462402344	-2.327610595703125	0		-1.0771605224609375	-0.03977640151977539	0		-0.7353920288085938	-2.280596435546875	0		1.275344970703125	-0.6105994873046875	0		3.052394287109375	0.047461193084716795	0		4.58787548828125	0.07272655487060548	0		5.566515625	0.11351356506347657	0		-0.3150830078125	5.8844716796875	0		
-0.054625907897949216	0.0041617960929870605	0		0.45303366088867186	-2.326119384765625	0		-1.067237060546875	-0.0327671012878418	0		-0.7293794555664063	-2.2756796875	0		1.2769466552734374	-0.6114057006835938	0		3.038548828125	0.06717465972900391	0		4.588955078125	0.08562675476074219	0		5.57349951171875	0.11794532012939453	0		-0.2967550354003906	5.89609619140625	0		
0.02511796569824219	7.850800156593323E-4	0		0.4549837646484375	-2.323587646484375	0		-1.065470458984375	-0.032651317596435546	0		-0.728453125	-2.2756904296875	0		1.2805390625	-0.6091968994140625	0		3.038238525390625	0.057781745910644534	0		4.590765625	0.0836236801147461	0		5.5636083984375	0.13574267578125	0		-0.15948129272460937	5.9150224609375	0		
-0.051143997192382815	0.0036531341075897216	0		0.4548189697265625	-2.3269970703125	0		-1.07188330078125	-0.039420791625976566	0		-0.7306007080078125	-2.27865234375	0		1.2799801025390625	-0.6128836059570313	0		3.067043701171875	0.06204863739013672	0		4.5993916015625	0.07463583374023437	0		5.577091796875	0.11533905029296875	0		-0.16985011291503907	5.9040205078125	0		
0.024384477615356445	-0.002679680109024048	0		0.47958099365234375	-2.33274951171875	0		-1.070285888671875	-0.039309120178222655	0		-0.7317748413085937	-2.28062353515625	0		1.3192933349609375	-0.6201187133789062	0		3.036693115234375	0.06226788330078125	0		4.60102685546875	0.07286894226074218	0		5.5687412109375	0.11339788818359375	0		-0.16725408935546876	5.90584814453125	0		
-0.051079421997070315	-7.348189949989319E-4	0		0.45442202758789063	-2.329723876953125	0		-1.0687852783203124	-0.03920164489746094	0		-0.7309664306640625	-2.280620361328125	0		1.2796497802734375	-0.6181234741210937	0		3.038224853515625	0.061106945037841795	0		4.60743896484375	0.06314946365356446	0		5.57028857421875	0.11145494079589843	0		-0.28110226440429686	5.89446435546875	0		
0.03135212326049805	-1.8309900164604188E-4	0		0.45719561767578126	-2.328088134765625	0		-1.0474351806640625	-0.042408855438232425	0		-0.7251324462890625	-2.275692138671875	0		1.2888509521484375	-0.6208171997070312	0		3.063478759765625	0.04866141510009766	0		4.60196142578125	0.06773431396484375	0		5.585822265625	0.11543721008300781	0		-0.27703369140625	5.892326171875	0		
-0.045300106048583984	0.0028597431182861327	0		0.46096517944335935	-2.323439453125	0		-1.0539332275390625	-0.029189428329467772	0		-0.7223963012695312	-2.273714599609375	0		1.287135986328125	-0.6122940673828124	0		3.0450693359375	0.06498320007324218	0		4.62041015625	0.07406516265869141	0		5.57719189453125	0.11593575286865235	0		-0.14182196044921874	5.9131259765625	0		
0.03386122131347656	-5.437859892845154E-4	0		0.45852548217773437	-2.328664306640625	0		-1.05678515625	-0.03203164672851563	0		-0.7268236694335938	-2.27862060546875	0		1.324041259765625	-0.6223447875976562	0		3.031080810546875	0.051326400756835935	0		4.60166552734375	0.07510527801513672	0		5.572583984375	0.12451831817626953	0		-0.14115495300292968	5.91502978515625	0		
-0.046059432983398436	-0.0013740769624710084	0		0.48302975463867187	-2.334297119140625	0		-1.0638038330078126	-0.038809749603271486	0		-0.6922933959960937	-2.283155517578125	0		1.2840435791015625	-0.6201107177734375	0		3.048191162109375	0.05025711822509766	0		4.59868603515625	0.06801679992675781	0		5.58027197265625	0.0960398941040039	0		-0.15291302490234376	5.9051484375	0		
0.03191678237915039	-0.0037554240226745604	0		0.4576224365234375	-2.331086669921875	0		-1.06280810546875	-0.03872017288208008	0		-0.7277056884765625	-2.280546630859375	0		1.322836181640625	-0.626113037109375	0		3.05508837890625	0.042431922912597654	0		4.60866845703125	0.06483348083496093	0		5.576443359375	0.1038907928466797	0		-0.1346068878173828	5.9127919921875	0		
0.03282570648193359	-0.0038625519275665285	0		0.4601492004394531	-2.32930322265625	0		-1.0537899169921876	-0.0317662296295166	0		-0.7251698608398438	-2.278552001953125	0		1.288788818359375	-0.6168687133789063	0		3.061238037109375	0.05570022583007812	0		4.61368896484375	0.0698423843383789	0		5.58150439453125	0.11072676849365234	0		-0.2659737854003906	5.89393310546875	0		
0.02294610023498535	0.014234239578247071	0		0.46164483642578125	-2.326474365234375	0		-1.0529781494140624	-0.03167861938476563	0		-0.7216663818359375	-2.275567626953125	0		1.3353662109375	-0.6259270629882813	0		3.056828857421875	0.04121776580810547	0		4.620650390625	0.0769242935180664	0		5.59233740234375	0.10958822631835938	0		-0.13186595153808595	5.913671875	0		
-0.03954357147216797	0.0022422399520874024	0		0.4869464111328125	-2.33202197265625	0		-1.0563302001953125	-0.03551996612548828	0		-0.7243196411132813	-2.278472900390625	0		1.266092041015625	-0.6199889526367187	0		3.08875341796875	0.05219804382324219	0		4.61114501953125	0.0623819580078125	0		5.577244140625	0.11900646209716798	0		-0.13030804443359376	5.91363134765625	0		
-0.04199429702758789	-0.0017393250465393066	0		0.45927499389648435	-2.33164306640625	0		-1.0597684326171875	-0.03835711288452148	0		-0.6900617065429687	-2.283000732421875	0		1.32246923828125	-0.6301414184570312	0		3.047417236328125	0.05448967361450195	0		4.6138037109375	0.06373102569580077	0		5.58373876953125	0.11016752624511719	0		-0.12991542053222657	5.91562646484375	0		
0.035489063262939456	-0.0040778560638427734	0		0.45952908325195313	-2.331713134765625	0		-1.059260498046875	-0.03825916290283203	0		-0.7257625732421875	-2.280324951171875	0		1.26991943359375	-0.6293958129882813	0		3.047935302734375	0.05413303756713867	0		4.61639111328125	0.06716603851318359	0		5.5900556640625	0.09742877960205078	0		-0.12680043029785157	5.91258740234375	0		
-0.04107261657714844	-0.0017518500089645386	0		0.4617448425292969	-2.329794921875	0		-1.0448218994140626	-0.036399681091308596	0		-0.7204902954101563	-2.275343017578125	0		1.2991942138671875	-0.63402294921875	0		3.07215673828125	0.04241918563842773	0		4.62166845703125	0.05862664794921875	0		5.59047509765625	0.09687926483154297	0		-0.25818930053710937	5.8918837890625	0		
